<?xml version="1.0" encoding="UTF-8"?>
<svg class="svg-inline--fa fa-times-circle fa-w-16" width="37" height="37" aria-hidden="true" data-icon="times-circle" data-prefix="fas" focusable="false" role="img" version="1.1" viewBox="0 0 37 37" xmlns="http://www.w3.org/2000/svg"><path d="m18.5 0.5c-9.9436 0-18 8.0564-18 18s8.0564 18 18 18 18-8.0564 18-18-8.0564-18-18-18zm8.8258 22.725c0.34113 0.34113 0.34113 0.89274 0 1.2339l-2.8742 2.8669c-0.34113 0.34113-0.89274 0.34113-1.2339 0l-4.7177-4.7613-4.725 4.7613c-0.34113 0.34113-0.89274 0.34113-1.2339 0l-2.8669-2.8742c-0.34113-0.34113-0.34113-0.89274 0-1.2339l4.7613-4.7177-4.7613-4.725c-0.34113-0.34113-0.34113-0.89274 0-1.2339l2.8742-2.8742c0.34113-0.34113 0.89274-0.34113 1.2339 0l4.7177 4.7685 4.725-4.7613c0.34113-0.34113 0.89274-0.34113 1.2339 0l2.8742 2.8742c0.34113 0.34113 0.34113 0.89274 0 1.2339l-4.7685 4.7177z" fill="#f9f9f9" stroke-width=".072581"/></svg>
