<?xml version="1.0" encoding="UTF-8"?>
<svg class="svg-inline--fa fa-exclamation-triangle fa-w-18" width="50" height="50" aria-hidden="true" data-icon="exclamation-triangle" data-prefix="fas" focusable="false" role="img" version="1.1" viewBox="0 0 50 50" xmlns="http://www.w3.org/2000/svg"><path d="m44.794 37.938c1.2978 2.2496-0.33124 5.0616-2.9234 5.0616h-33.742c-2.5971 0-4.2187-2.8164-2.9234-5.0616l16.871-29.252c1.2985-2.2506 4.5506-2.2466 5.8468 0zm-19.794-6.0478c-1.7863 0-3.2344 1.4481-3.2344 3.2344 0 1.7863 1.4481 3.2344 3.2344 3.2344 1.7863 0 3.2344-1.4481 3.2344-3.2344 0-1.7863-1.4481-3.2344-3.2344-3.2344zm-3.0708-11.626 0.52157 9.5625c0.02441 0.44747 0.39439 0.79777 0.84249 0.79777h3.4134c0.4481 0 0.81809-0.3503 0.84248-0.79777l0.52158-9.5625c0.02637-0.48333-0.35846-0.88973-0.84248-0.88973h-4.4566c-0.48403 0-0.86878 0.4064-0.84241 0.88973z" fill="#f1f1f1" stroke-width=".070313"/></svg>
