<?xml version="1.0" encoding="UTF-8"?>
<svg class="svg-inline--fa fa-fast-forward fa-w-16" width="50" height="38" aria-hidden="true" data-icon="fast-forward" data-prefix="fas" focusable="false" role="img" version="1.1" viewBox="0 0 50 38" xmlns="http://www.w3.org/2000/svg"><path d="m44.998 4.9386v28.121c0 0.51554-0.42181 0.93735-0.93735 0.93735h-3.1246c-0.51554 0-0.93735-0.42181-0.93735-0.93735v-11.865l-13.397 12.224c-1.6091 1.3436-4.101 0.21872-4.101-1.9215v-10.303l-13.397 12.224c-1.6091 1.3436-4.101 0.21871-4.101-1.9215v-24.995c0-2.1403 2.4919-3.2573 4.101-1.9215l13.397 12.138v-10.217c0-2.1403 2.4919-3.2573 4.101-1.9215l13.397 12.138v-11.779c0-0.51554 0.42181-0.93735 0.93735-0.93735h3.1246c0.51554 0 0.93735 0.42181 0.93735 0.93735z" fill="#fff" stroke-width=".078111"/></svg>
