<?xml version="1.0" encoding="UTF-8"?>
<svg class="svg-inline--fa fa-laugh fa-w-16" width="37" height="37" aria-hidden="true" data-icon="laugh" data-prefix="fas" focusable="false" role="img" version="1.1" viewBox="0 0 37 37" xmlns="http://www.w3.org/2000/svg"><path d="m18.5 0.5c-9.9435 0-18 8.0565-18 18 0 9.9435 8.0565 18 18 18 9.9435 0 18-8.0565 18-18 0-9.9435-8.0565-18-18-18zm5.8065 11.032c1.2847 0 2.3226 1.0379 2.3226 2.3226 0 1.2847-1.0379 2.3226-2.3226 2.3226-1.2847 0-2.3226-1.0379-2.3226-2.3226 0-1.2847 1.0379-2.3226 2.3226-2.3226zm-11.613 0c1.2847 0 2.3226 1.0379 2.3226 2.3226 0 1.2847-1.0379 2.3226-2.3226 2.3226s-2.3226-1.0379-2.3226-2.3226c0-1.2847 1.0379-2.3226 2.3226-2.3226zm6.3871 19.742h-1.1613c-5.3274 0-9.7258-3.9919-10.372-9.1451-0.08712-0.68951 0.45725-1.3065 1.1541-1.3065h19.596c0.69677 0 1.2411 0.60968 1.1541 1.3065-0.64596 5.1532-5.0443 9.1451-10.372 9.1451z" fill="#fff" stroke-width=".07258"/></svg>
