<?xml version="1.0" encoding="UTF-8"?>
<svg class="svg-inline--fa fa-parking fa-w-14" width="37" height="37" aria-hidden="true" data-icon="parking" data-prefix="fas" focusable="false" role="img" version="1.1" viewBox="0 0 37 37" xmlns="http://www.w3.org/2000/svg"><path d="m32.643 0.5h-28.286c-2.1295 0-3.8571 1.7277-3.8571 3.8571v28.286c0 2.1295 1.7277 3.8571 3.8571 3.8571h28.286c2.1295 0 3.8571-1.7277 3.8571-3.8571v-28.286c0-2.1295-1.7277-3.8571-3.8571-3.8571zm-12.857 23.143h-3.8571v3.8571c0 0.70714-0.57857 1.2857-1.2857 1.2857h-2.5714c-0.70714 0-1.2857-0.57857-1.2857-1.2857v-18c0-0.70714 0.57857-1.2857 1.2857-1.2857h7.7143c4.2509 0 7.7143 3.4634 7.7143 7.7143s-3.4634 7.7143-7.7143 7.7143zm0-10.286h-3.8571v5.1429h3.8571c1.4143 0 2.5714-1.1571 2.5714-2.5714 0-1.4143-1.1571-2.5714-2.5714-2.5714z" fill="#fff" stroke-width=".080357"/></svg>
