<?xml version="1.0" encoding="UTF-8"?>
<svg class="svg-inline--fa fa-sign-out-alt fa-w-16" width="48" height="37" aria-hidden="true" data-icon="sign-out-alt" data-prefix="fas" focusable="false" role="img" version="1.1" viewBox="0 0 48 37" xmlns="http://www.w3.org/2000/svg"><path d="m46.966 20.093-15.747 15.747c-1.406 1.406-3.8432 0.4218-3.8432-1.5935v-8.9985h-12.748c-1.2467 0-2.2497-1.003-2.2497-2.2497v-8.9985c0-1.2467 1.003-2.2497 2.2497-2.2497h12.748v-8.9985c0-2.0059 2.4277-2.9994 3.8432-1.5935l15.747 15.747c0.87173 0.8811 0.87173 2.3058 0 3.1869zm-28.589 15.279v-3.7493c0-0.61864-0.50615-1.1248-1.1248-1.1248h-7.8736c-1.6591 0-2.9994-1.3404-2.9994-2.9995v-17.997c0-1.6591 1.3404-2.9995 2.9994-2.9995h7.8736c0.61865 0 1.1248-0.50617 1.1248-1.1248v-3.7493c0-0.61865-0.50615-1.1248-1.1248-1.1248h-7.8736c-4.9679 0-8.9985 4.0306-8.9985 8.9985v17.997c0 4.9679 4.0306 8.9985 8.9985 8.9985h7.8736c0.61865 0 1.1248-0.50615 1.1248-1.1248z" fill="#fff" stroke-width=".093734"/></svg>
