<?xml version="1.0" encoding="UTF-8"?>
<svg class="svg-inline--fa fa-wifi fa-w-20" width="52" height="37" aria-hidden="true" data-icon="wifi" data-prefix="fas" focusable="false" role="img" version="1.1" viewBox="0 0 52 37" xmlns="http://www.w3.org/2000/svg"><path d="m51.305 10.374c-14.237-13.168-36.379-13.163-50.61 0-0.53518 0.49499-0.54561 1.3331-0.028065 1.8466l2.7514 2.7297c0.49339 0.49019 1.2873 0.50064 1.8 0.03056 11.726-10.742 29.836-10.745 41.565 0 0.51268 0.4701 1.3066 0.45885 1.8-0.03056l2.7514-2.7297c0.5167-0.51348 0.50625-1.3516-0.02894-1.8466zm-25.306 15.84c-2.8406 0-5.1429 2.3022-5.1429 5.1429 0 2.8406 2.3022 5.1429 5.1429 5.1429 2.8406 0 5.1429-2.3022 5.1429-5.1429 0-2.8406-2.3022-5.1429-5.1429-5.1429zm16.287-6.717c-9.262-8.1908-23.321-8.182-32.572 0-0.55447 0.49019-0.57215 1.3412-0.045844 1.8602l2.7674 2.7313c0.48215 0.47571 1.2584 0.50785 1.7719 0.06421 6.746-5.8316 16.854-5.8186 23.584 0 0.51348 0.44356 1.2897 0.41222 1.7719-0.06421l2.7674-2.7313c0.52714-0.51911 0.50867-1.3709-0.04496-1.8602z" fill="#fff" stroke-width=".080358"/></svg>
